<?xml version="1.0" encoding="UTF-8" standalone="no"?>
<!DOCTYPE svg PUBLIC "-//W3C//DTD SVG 1.1//EN" "http://www.w3.org/Graphics/SVG/1.1/DTD/svg11.dtd">
<svg width="100%" height="100%" viewBox="0 0 874 218" version="1.1" xmlns="http://www.w3.org/2000/svg" xmlns:xlink="http://www.w3.org/1999/xlink" xml:space="preserve" xmlns:serif="http://www.serif.com/" style="fill-rule:evenodd;clip-rule:evenodd;">
    <g transform="matrix(1,0,0,-1,10.3078,206.811)">
        <rect x="0" y="0" width="215.602" height="196.504" style="fill:none;stroke:black;stroke-width:5px;"/>
    </g>
    <g transform="matrix(1,0,0,-1,228.586,106.56)">
        <path d="M8.6,0L191.559,0" style="fill:none;fill-rule:nonzero;stroke:black;stroke-width:2px;"/>
    </g>
    <g transform="matrix(1,0,0,1,-631.334,-451.982)">
        <path d="M1050.48,563.341L1060.08,558.541L1050.48,553.742L1050.48,563.341Z" style="fill-rule:nonzero;"/>
    </g>
    <g transform="matrix(1,0,0,1,-631.334,-451.982)">
        <path d="M869.52,553.742L859.92,558.541L869.52,563.341L869.52,553.742Z" style="fill-rule:nonzero;"/>
    </g>
    <g transform="matrix(1,0,0,-1,432.238,206.811)">
        <rect x="0" y="0" width="285.459" height="196.504" style="fill:none;stroke:black;stroke-width:5px;"/>
    </g>
    <g transform="matrix(1,0,0,-1,575.344,66.4521)">
        <rect x="0" y="0" width="120.532" height="42.898" style="fill:none;stroke:black;stroke-width:2px;"/>
    </g>
    <g transform="matrix(1,0,0,-1,575.344,108.359)">
        <rect x="0" y="0" width="120.532" height="42.898" style="fill:none;stroke:black;stroke-width:2px;"/>
    </g>
    <g transform="matrix(1,0,0,-1,575.344,194.55)">
        <rect x="0" y="0" width="120.532" height="42.898" style="fill:none;stroke:black;stroke-width:2px;"/>
    </g>
    <g transform="matrix(1,0,0,1,-631.334,-585.286)">
        <path d="M1427.43,588.394C1415.71,588.394 1406.21,598.083 1406.21,610.037C1406.21,612.258 1406.53,614.402 1407.14,616.419C1407.14,616.42 1407.14,616.424 1407.14,616.425C1407.17,616.544 1407.24,616.75 1407.35,617.034C1407.57,617.7 1407.82,618.355 1408.1,618.989C1410.58,625.15 1416.89,640.049 1416.89,643.392L1417.32,645.985C1417.32,645.985 1417.4,646.254 1417.64,646.589L1437.28,646.589C1437.52,646.254 1437.6,645.985 1437.6,645.985L1438.03,643.392C1438.03,639.327 1447.36,618.181 1447.77,616.425C1447.79,616.37 1447.78,616.326 1447.75,616.293C1448.33,614.313 1448.65,612.211 1448.65,610.037C1448.65,598.083 1439.15,588.394 1427.43,588.394ZM1417.88,648.693C1417.86,648.797 1417.84,648.903 1417.84,649.015L1417.84,651.085C1417.84,651.767 1418.35,652.331 1419,652.436C1418.84,652.64 1418.75,652.892 1418.75,653.166L1418.75,654.978C1418.75,655.64 1419.29,656.18 1419.95,656.18L1420.33,656.18L1420.33,657.835C1420.33,658.476 1420.85,658.997 1421.5,658.997L1423.53,658.997C1423.75,660.681 1425.41,661.993 1427.43,661.993C1429.45,661.993 1431.11,660.68 1431.33,658.997L1433.36,658.997C1434,658.997 1434.53,658.476 1434.53,657.835L1434.53,656.18L1434.91,656.18C1435.57,656.18 1436.11,655.641 1436.11,654.978L1436.11,653.166C1436.11,652.892 1436.02,652.64 1435.86,652.436C1436.51,652.331 1437.02,651.767 1437.02,651.085L1437.02,649.015C1437.02,648.903 1437,648.798 1436.97,648.693L1417.88,648.693Z" style="fill-rule:nonzero;"/>
    </g>
    <g transform="matrix(1,0,0,1,-631.334,-541.368)">
        <path d="M1474.02,566.087C1470.46,566.087 1467.58,568.968 1467.58,572.524L1467.58,578.276L1472.4,578.276C1472.91,578.276 1473.32,578.688 1473.32,579.199C1473.32,579.709 1472.91,580.122 1472.4,580.122L1467.58,580.122L1467.58,584.881L1469.87,584.881C1470.38,584.881 1470.79,585.294 1470.79,585.804C1470.79,586.315 1470.38,586.727 1469.87,586.727L1467.58,586.727L1467.58,591.922L1472.22,591.922C1472.73,591.922 1473.15,592.335 1473.15,592.845C1473.15,593.355 1472.73,593.773 1472.22,593.774L1467.58,593.774L1467.58,598.8L1469.87,598.8C1470.38,598.8 1470.79,599.213 1470.79,599.723C1470.79,600.233 1470.38,600.646 1469.87,600.646L1467.58,600.646L1467.58,605.469L1472.22,605.469C1472.73,605.469 1473.15,605.888 1473.15,606.398C1473.15,606.908 1472.73,607.321 1472.22,607.321L1467.58,607.321L1467.58,615.871C1463.6,618.121 1460.91,622.381 1460.91,627.276C1460.91,634.513 1466.78,640.382 1474.02,640.382C1481.25,640.382 1487.12,634.513 1487.12,627.276C1487.12,622.381 1484.43,618.121 1480.45,615.871L1480.45,572.524C1480.45,568.968 1477.57,566.087 1474.02,566.087Z" style="fill-rule:nonzero;"/>
    </g>
    <g transform="matrix(1,0,0,-1,743.018,206.456)">
        <rect x="0" y="0" width="120.477" height="57.013" style="fill:none;stroke:black;stroke-width:5px;"/>
    </g>
    <g transform="matrix(1,0,0,1,-631.334,-414.899)">
        <text x="714.771px" y="535.335px" style="font-family:'HelveticaNeue-Medium', 'Helvetica Neue', sans-serif;font-weight:500;font-size:32px;">Host</text>
    </g>
    <g transform="matrix(1,0,0,1,-631.334,-414.899)">
        <text x="899.826px" y="509.195px" style="font-family:'HelveticaNeue', 'Helvetica Neue';font-size:32px;">MultiBus</text>
    </g>
    <g transform="matrix(1,0,0,1,-631.334,-414.899)">
        <text x="1090.57px" y="535.335px" style="font-family:'HelveticaNeue-Medium', 'Helvetica Neue', sans-serif;font-weight:500;font-size:32px;">Bridge</text>
    </g>
    <g transform="matrix(1,0,0,1,-631.334,-414.899)">
        <text x="1237.38px" y="468.549px" style="font-family:'HelveticaNeue-Medium', 'Helvetica Neue', sans-serif;font-weight:500;font-size:24px;">GPIO</text>
        <text x="1248.27px" y="510.459px" style="font-family:'HelveticaNeue-Medium', 'Helvetica Neue', sans-serif;font-weight:500;font-size:24px;">I2C</text>
        <text x="1247.83px" y="596.649px" style="font-family:'HelveticaNeue-Medium', 'Helvetica Neue', sans-serif;font-weight:500;font-size:24px;">SPI</text>
    </g>
    <g transform="matrix(1,0,0,1,-631.334,-414.899)">
        <text x="1402.3px" y="604.471px" style="font-family:'HelveticaNeue-Medium', 'Helvetica Neue', sans-serif;font-weight:500;font-size:32px;">LCD</text>
    </g>
    <g transform="matrix(1,0,0,1,-631.334,-414.899)">
        <text x="904.304px" y="557.195px" style="font-family:'HelveticaNeue', 'Helvetica Neue';font-size:32px;">Pr<tspan x="935.12px 953.488px " y="557.195px 557.195px ">ot</tspan>ocol</text>
    </g>
    <g transform="matrix(1,0,0,1,-631.334,-414.899)">
        <text x="1254.94px" y="548.277px" style="font-family:'HelveticaNeue-Medium', 'Helvetica Neue', sans-serif;font-weight:500;font-size:24px;">…</text>
    </g>
    <g transform="matrix(-1,0,0,1,780.663,45.5462)">
        <path d="M8.6,0L73.901,0" style="fill:none;fill-rule:nonzero;stroke:black;stroke-width:2px;"/>
    </g>
    <g transform="matrix(1,0,0,1,-631.334,-574.009)">
        <path d="M1339.1,614.755L1329.5,619.555L1339.1,624.355L1339.1,614.755Z" style="fill-rule:nonzero;"/>
    </g>
    <g transform="matrix(1,0,0,1,-631.334,-574.009)">
        <path d="M1402.4,624.355L1412,619.555L1402.4,614.755L1402.4,624.355Z" style="fill-rule:nonzero;"/>
    </g>
    <g transform="matrix(-1,0,0,1,829.92,85.5462)">
        <path d="M8.6,0L122.788,0" style="fill:none;fill-rule:nonzero;stroke:black;stroke-width:2px;"/>
    </g>
    <g transform="matrix(1,0,0,1,-631.334,-494.009)">
        <path d="M1339.47,574.755L1329.87,579.555L1339.47,584.355L1339.47,574.755Z" style="fill-rule:nonzero;"/>
    </g>
    <g transform="matrix(1,0,0,1,-631.334,-494.009)">
        <path d="M1451.65,584.355L1461.25,579.555L1451.65,574.755L1451.65,584.355Z" style="fill-rule:nonzero;"/>
    </g>
    <g transform="matrix(-1,0,0,1,742.607,174.95)">
        <path d="M8.6,0L33.845,0" style="fill:none;fill-rule:nonzero;stroke:black;stroke-width:2px;"/>
    </g>
    <g transform="matrix(1,0,0,1,-631.334,-315.201)">
        <path d="M1341.1,485.351L1331.5,490.151L1341.1,494.951L1341.1,485.351Z" style="fill-rule:nonzero;"/>
    </g>
    <g transform="matrix(1,0,0,1,-631.334,-315.201)">
        <path d="M1364.34,494.951L1373.94,490.151L1364.34,485.351L1364.34,494.951Z" style="fill-rule:nonzero;"/>
    </g>
</svg>
